<svg id="Layer_1" data-name="Layer 1" xmlns="http://www.w3.org/2000/svg" xmlns:xlink="http://www.w3.org/1999/xlink" width="3647" height="1000" viewBox="0 0 3647 1000">
  <defs>
    <linearGradient id="linear-gradient" x1="419.82" y1="499.96" x2="844.93" y2="499.96" gradientUnits="userSpaceOnUse">
      <stop offset="0" stop-color="#fff" stop-opacity="0.5"/>
      <stop offset="1" stop-color="#fff"/>
    </linearGradient>
  </defs>
  <title>logo horizontal branco para fundos escuros</title>
  <g>
    <path d="M792.1,494.8,547.3,250.1,419.8,377.6,792.1,749.9h0A180.5,180.5,0,0,0,792.1,494.8Z" style="opacity: 0.7000000000000001;fill: url(#linear-gradient)"/>
    <path d="M547.3,250.1,302.6,494.8a180.3,180.3,0,0,0,0,255.1h0L674.9,377.6Z" style="fill: #fff"/>
  </g>
  <g>
    <path d="M1270.3,494.4a60.2,60.2,0,0,0,27.5-20.6c7.9-10.3,11.8-22.7,11.8-36.8,0-12.4-3.1-23.5-9.3-33.1a63.4,63.4,0,0,0-25.8-22.4,82.1,82.1,0,0,0-36.4-8H1093.3V626.6h144.8c22.6,0,41.5-6.2,56.2-18.4s22.2-30.1,22.2-53.1c0-15.3-4.5-28.8-13.6-40.1A58,58,0,0,0,1270.3,494.4Zm-11.1,54.9c0,9.5-2.8,16.8-8.2,21.8s-12.8,7.7-21.6,7.7h-79.8V520.5h76.9c10.7,0,18.9,2.7,24.4,8S1259.2,540.8,1259.2,549.3Zm-109.6-75.9V421.3h76.1c8.3,0,14.9,2.4,19.6,6.9s7,11.3,7,20.1-2.5,13.3-7.5,18-12.3,7.1-21.6,7.1Z" style="fill: #fff"/>
    <polygon points="1485.3 521.2 1612.9 521.2 1612.9 473.4 1485.3 473.4 1485.3 421.3 1629 421.3 1629 373.5 1429.5 373.5 1429.5 626.6 1631.2 626.6 1631.2 578.8 1485.3 578.8 1485.3 521.2" style="fill: #fff"/>
    <path d="M1886.7,512.5c-1.5,6.1-3.4,16-5.7,29.4-1.8,10.4-3.1,18.5-4,23.8-.9-5-2.3-12.7-4.3-23.1-2.6-13.2-4.9-23.4-6.8-30.2l-35.3-138.9h-85V626.6h54V465.8c0-4.2-.3-11-.9-20.9-.3-5.2-.6-9.4-.8-12.7l6,23.4L1847,625.5l.2,1.1h52.7l43.3-171,6.1-23.4c-.3,3.3-.5,7.4-.8,12.3-.7,9.5-1,16.6-1,21.3V626.6h55.9V373.5H1922Z" style="fill: #fff"/>
    <path d="M2638.8,379.3c-18-6.8-38.1-10.2-59.8-10.2-41,0-73.3,11.1-95.8,32.9s-34,54.8-34,98.1,10.7,77.4,32,98.7,51.6,32.2,90.5,32.2c18.6,0,34.6-2.6,47.6-7.8s24.1-12.5,35.3-22.8l4.5,26.2h39.2v-139H2566.6V534h75.8c-.6,14.8-7,26.7-19.1,35.4s-28.7,13.7-47.9,13.7c-23.3,0-40.8-6.4-51.9-19s-17-32.3-17-58.6V494.6c0-25,6.2-44.4,18.4-57.7s31-19.9,55.9-19.9c16.4,0,30.7,4,42.4,11.9s17.4,18.2,17.4,31.4v1.5h57.7v-1.5c0-19.7-5.5-36.6-16.2-50.3S2656.8,386,2638.8,379.3Z" style="fill: #fff"/>
    <path d="M3034.8,453.4c0-25.1-7.3-44.9-21.6-58.9s-35.9-21-64.1-21H2814.9V626.6h55.8V533.3h67.6l44.1,93.3H3043l-51.4-102.4C3020.3,512.1,3034.8,488.3,3034.8,453.4Zm-164.1-32.1h73.6c11,0,19.5,2.9,25.2,8.4s8.7,13.5,8.7,23.7-2.9,18.3-8.7,24.1-14.2,8.7-25.2,8.7h-73.6Z" style="fill: #fff"/>
    <path d="M3364.6,401.8c-22.3-21.7-54.1-32.7-94.7-32.7s-72.1,11-94.4,32.7-33.6,54.8-33.6,98.3,11.3,76.5,33.6,98.2,54.1,32.7,94.4,32.7,72.4-11,94.7-32.7,33.7-54.8,33.7-98.2S3386.9,423.5,3364.6,401.8ZM3322.9,563c-11.9,13.4-29.7,20.1-53,20.1s-41-6.7-52.8-20.1-17.9-32.7-17.9-57.5V494.6c0-24.8,6-44.1,17.9-57.5s29.5-20.1,52.8-20.1,41.1,6.7,53,20.1,18,32.7,18,57.5v10.9C3340.9,530.3,3334.9,549.7,3322.9,563Z" style="fill: #fff"/>
    <path d="M2265,373.7h-68.3l-97.9,250.7-.8,2h5.3c28.1,0,56.3-8.7,81.8-25.3a144.6,144.6,0,0,1,36.9-17.3,147.7,147.7,0,0,1,63.1-5.2l17.9,47.8h60.7l-98.3-251.8Zm-42.5,71.1,6.7-22c1.4,4.4,3.7,11.9,6.8,22,3.6,11.9,6.4,20.5,8.4,25.6l22.8,61a132.3,132.3,0,0,0-50.9,4.8,136.4,136.4,0,0,0-32.1,14.5l29.9-80.3C2216,465.2,2218.8,456.6,2222.5,444.8Z" style="fill: #fff"/>
  </g>
</svg>
